<svg width="127" height="42" viewBox="0 0 127 42" fill="none" xmlns="http://www.w3.org/2000/svg">
<g clip-path="url(#clip0_111_753)">
<path d="M50.9641 26.7385C51.214 26.665 51.4492 26.5694 51.6697 26.4518C51.9049 26.3342 52.1621 26.2387 52.4414 26.1652C52.8089 26.1211 53.1763 26.0991 53.5438 26.0991C53.926 26.0991 54.2788 26.055 54.6022 25.9668C54.9549 25.908 55.271 25.8639 55.5502 25.8345C55.8442 25.8051 56.1162 25.8565 56.366 25.9888C56.3954 26.1064 56.3954 26.2534 56.366 26.4298C56.3366 26.5915 56.2999 26.7311 56.2558 26.8487C56.2117 26.981 56.175 27.0839 56.1456 27.1574C56.1162 27.2309 56.0647 27.3264 55.9912 27.444C55.9177 27.5028 55.8369 27.5469 55.7487 27.5763C55.6752 27.6057 55.6017 27.6425 55.5282 27.6866C55.3959 27.6572 55.2563 27.6719 55.1093 27.7307C55.0652 27.6719 54.9696 27.6572 54.8226 27.6866C54.6169 27.6719 54.4258 27.7013 54.2494 27.7748C54.0877 27.8482 53.9113 27.8703 53.7202 27.8409C53.6026 27.8703 53.4703 27.8923 53.3233 27.907C53.191 27.907 53.0441 27.9217 52.8824 27.9511C52.7207 27.9805 52.5737 28.032 52.4414 28.1055C52.3091 28.179 52.1621 28.201 52.0004 28.1716C51.8387 28.2451 51.6697 28.3113 51.4933 28.3701C51.3169 28.4436 51.1332 28.5171 50.9421 28.5906C50.7804 28.6787 50.6848 28.7228 50.6554 28.7228C50.6407 28.7228 50.6187 28.7302 50.5893 28.7449C50.4423 28.8184 50.3321 28.8625 50.2586 28.8772C50.1998 28.8919 50.1336 28.9139 50.0601 28.9433C49.9425 28.9433 49.8323 28.9213 49.7294 28.8772C49.6412 28.8478 49.5383 28.811 49.4207 28.7669C49.3472 28.7228 49.2958 28.6714 49.2664 28.6126C49.237 28.5685 49.1929 28.5024 49.1341 28.4142C48.9577 28.2378 48.8328 28.054 48.7593 27.8629C48.7299 27.8335 48.6931 27.8041 48.649 27.7748C48.6049 27.7454 48.5608 27.716 48.5167 27.6866C48.4432 27.4367 48.4506 27.2235 48.5388 27.0471C48.6123 26.8561 48.6858 26.665 48.7593 26.4739C48.8475 26.2534 48.921 26.0256 48.9798 25.7904C49.0385 25.5405 49.1414 25.3347 49.2884 25.173C49.3325 25.0407 49.4134 24.8864 49.531 24.71C49.6192 24.563 49.6853 24.4087 49.7294 24.247C49.7882 24.0853 49.8617 23.9309 49.9499 23.7839C49.994 23.7105 50.0381 23.6443 50.0822 23.5855C50.141 23.512 50.1924 23.4459 50.2365 23.3871C50.2512 23.3136 50.2733 23.2621 50.3027 23.2327C50.3468 23.2033 50.3762 23.1519 50.3909 23.0784C50.5379 22.9461 50.6481 22.7844 50.7216 22.5933C50.8098 22.4022 50.92 22.2332 51.0523 22.0862C51.1699 21.9245 51.2581 21.7481 51.3169 21.557C51.3904 21.3659 51.4859 21.1896 51.6035 21.0279C51.6623 20.8809 51.7064 20.7706 51.7358 20.6971C51.7799 20.6236 51.824 20.5428 51.8681 20.4546C51.9269 20.3223 51.9784 20.168 52.0225 19.9916C52.0813 19.8152 52.1474 19.6682 52.2209 19.5506C52.2503 19.4183 52.2944 19.3081 52.3532 19.2199C52.412 19.1317 52.4561 19.0067 52.4855 18.8451C52.559 18.7422 52.6104 18.6172 52.6398 18.4702C52.6839 18.3232 52.7354 18.1909 52.7942 18.0734C52.7942 18.0146 52.8089 17.9631 52.8383 17.919C52.8824 17.8602 52.8897 17.8088 52.8603 17.7647C52.9338 17.6912 52.9706 17.603 52.9706 17.5001C52.9853 17.3972 53.0294 17.309 53.1028 17.2355C53.0881 17.1326 53.1249 17.0224 53.2131 16.9048C53.2278 16.8313 53.2498 16.7725 53.2792 16.7284C53.3233 16.6696 53.3527 16.6181 53.3674 16.574C53.4997 16.3242 53.5806 16.1478 53.61 16.0449C53.6541 15.9273 53.6982 15.8244 53.7423 15.7362C53.7717 15.7068 53.8011 15.6774 53.8305 15.648C53.8599 15.6039 53.8819 15.5525 53.8966 15.4937C53.926 15.4202 53.9554 15.3393 53.9848 15.2511C54.0142 15.1629 54.0436 15.0821 54.073 15.0086C54.1024 14.9351 54.1244 14.869 54.1391 14.8102C54.1538 14.7514 54.1759 14.6999 54.2053 14.6558C54.3082 14.5088 54.3523 14.428 54.3376 14.4133C54.3376 14.3986 54.3449 14.3839 54.3596 14.3692C54.389 14.2957 54.4184 14.2295 54.4478 14.1707C54.4772 14.1119 54.5066 14.0532 54.536 13.9944C54.6977 13.5975 54.83 13.2741 54.9329 13.0242C55.0505 12.7743 55.1828 12.5244 55.3298 12.2746C55.3298 12.157 55.3151 12.0394 55.2857 11.9218C55.2563 11.7895 55.271 11.6719 55.3298 11.569C55.4474 11.5102 55.5576 11.4441 55.6605 11.3706C55.7781 11.2824 55.903 11.2236 56.0353 11.1942C56.0941 11.1795 56.1456 11.2089 56.1897 11.2824C56.2485 11.3412 56.2999 11.3853 56.344 11.4147C56.4763 11.5323 56.5939 11.6792 56.6968 11.8556C56.8144 12.0173 56.9026 12.1864 56.9614 12.3628C56.9908 12.4803 56.9981 12.62 56.9834 12.7817C56.9834 12.9287 56.9614 13.0536 56.9173 13.1565C56.8732 13.3182 56.8144 13.4431 56.7409 13.5313C56.7703 13.7224 56.7629 13.8841 56.7188 14.0164C56.6894 14.1487 56.6527 14.2736 56.6086 14.3912C56.4616 14.5382 56.344 14.7146 56.2558 14.9204C56.1676 15.0233 56.0941 15.1409 56.0353 15.2732C55.9765 15.3908 55.9104 15.5084 55.8369 15.626C55.7781 15.7435 55.7119 15.8611 55.6384 15.9787C55.5649 16.0963 55.5061 16.2286 55.4621 16.3756C55.3298 16.5373 55.2489 16.6622 55.2195 16.7504C55.2048 16.8239 55.1607 16.8901 55.0872 16.9489C54.9108 17.331 54.7565 17.6912 54.6242 18.0293C54.4919 18.3526 54.3449 18.6687 54.1832 18.9773C54.1979 19.0508 54.1832 19.1096 54.1391 19.1537C54.095 19.1831 54.0803 19.2346 54.095 19.3081C53.948 19.5727 53.8378 19.874 53.7643 20.2121C53.7055 20.5501 53.5953 20.8515 53.4336 21.1161C53.3013 21.5423 53.1322 21.9319 52.9265 22.2846C52.7354 22.6227 52.559 22.9902 52.3973 23.3871C52.3238 23.4165 52.2723 23.5047 52.243 23.6517C52.0813 23.9015 51.949 24.1808 51.8461 24.4895C51.7579 24.7982 51.6403 25.0848 51.4933 25.3494C51.4198 25.5699 51.3243 25.7977 51.2067 26.0329C51.0891 26.2681 51.0082 26.5033 50.9641 26.7385ZM62.8924 16.993C62.9218 17.0371 62.9365 17.0812 62.9365 17.1253C62.9365 17.1694 62.9586 17.2061 63.0027 17.2355C62.9733 17.3678 62.9439 17.5074 62.9145 17.6544C62.8998 17.7867 62.8924 17.919 62.8924 18.0513C62.8924 18.1101 62.9071 18.1615 62.9365 18.2056C62.9806 18.2497 63.0027 18.2938 63.0027 18.3379C62.9292 18.5143 62.8704 18.6172 62.8263 18.6466C62.7969 18.676 62.7822 18.7128 62.7822 18.7569C62.7087 18.7863 62.6499 18.8304 62.6058 18.8892C62.5764 18.9479 62.5176 18.9773 62.4294 18.9773C62.4 19.0214 62.3633 19.0582 62.3192 19.0876C62.2898 19.1023 62.2677 19.139 62.253 19.1978C62.0178 19.3007 61.7533 19.2934 61.4593 19.1758C61.3858 19.0435 61.2829 18.9479 61.1506 18.8892C60.9595 18.6099 60.9522 18.2791 61.1285 17.897C61.1579 17.8235 61.1873 17.75 61.2167 17.6765C61.2608 17.5883 61.2976 17.5295 61.327 17.5001C61.4887 17.3825 61.6063 17.309 61.6798 17.2796C61.7386 17.2502 61.7974 17.2135 61.8562 17.1694C61.9296 17.1253 62.0105 17.0885 62.0987 17.0591C62.1281 17.0444 62.1648 17.0371 62.2089 17.0371C62.2677 17.0371 62.3265 17.0224 62.3853 16.993C62.4441 16.9783 62.4956 16.9636 62.5397 16.9489C62.5838 16.9342 62.6279 16.9268 62.672 16.9268L62.8924 16.993ZM59.4749 26.7385C59.6072 26.6797 59.7689 26.6576 59.96 26.6723C60.1511 26.687 60.3054 26.6576 60.423 26.5841C60.4818 26.54 60.5332 26.4959 60.5773 26.4518C60.6214 26.4077 60.6729 26.393 60.7317 26.4077C60.9669 26.3195 61.1653 26.2313 61.327 26.1432C61.4887 26.055 61.6651 25.9888 61.8562 25.9447C61.9003 25.93 61.9517 25.9006 62.0105 25.8565C62.084 25.8124 62.1354 25.7757 62.1648 25.7463C62.4 25.6728 62.5691 25.5993 62.672 25.5258C62.7748 25.4523 62.8704 25.3788 62.9586 25.3053C63.0615 25.2318 63.157 25.1583 63.2452 25.0848C63.3481 24.9966 63.4731 24.8937 63.62 24.7761C63.8258 24.6585 63.9949 24.5557 64.1272 24.4675C64.2742 24.3793 64.4285 24.269 64.5902 24.1367C64.6196 24.0632 64.6563 24.0118 64.7004 23.9824C64.7592 23.9383 64.8033 23.8868 64.8327 23.828C65.0973 23.828 65.2443 23.9309 65.2737 24.1367C65.2002 24.2984 65.0973 24.4307 64.965 24.5336C64.8474 24.6365 64.7372 24.7541 64.6343 24.8864C64.5167 24.9599 64.4211 25.026 64.3476 25.0848C64.2742 25.1436 64.2007 25.2318 64.1272 25.3494C64.1125 25.3494 64.0684 25.3861 63.9949 25.4596C63.9214 25.5184 63.8773 25.5478 63.8626 25.5478C63.7744 25.6507 63.7082 25.7169 63.6641 25.7463C63.6347 25.7757 63.6053 25.7977 63.5759 25.8124C63.5612 25.8124 63.5319 25.8271 63.4878 25.8565C63.4584 25.8859 63.3922 25.9447 63.2893 26.0329C63.1864 26.1946 63.0541 26.3269 62.8924 26.4298C62.5838 26.7238 62.2457 26.981 61.8782 27.2015C61.5254 27.4073 61.202 27.6131 60.9081 27.8188C60.8493 27.8482 60.7978 27.8923 60.7537 27.9511C60.7096 27.9952 60.6582 28.0393 60.5994 28.0834C60.5259 28.1422 60.4083 28.201 60.2466 28.2598C60.0996 28.3186 59.9673 28.3701 59.8497 28.4142C59.7615 28.473 59.6807 28.5171 59.6072 28.5465C59.2838 28.5612 59.0339 28.5097 58.8575 28.3921C58.6665 28.2892 58.5195 28.2084 58.4166 28.1496C58.3137 28.0908 58.2255 27.9952 58.152 27.8629C57.9903 27.7894 57.8874 27.6572 57.8433 27.4661C57.8139 27.2603 57.7772 27.0618 57.7331 26.8708C57.7184 26.7973 57.7037 26.7164 57.689 26.6282C57.6743 26.5253 57.6743 26.4224 57.689 26.3195C57.7184 26.1579 57.7404 25.9888 57.7551 25.8124C57.7698 25.6213 57.8066 25.4596 57.8654 25.3274C57.9388 25.1657 57.9756 25.004 57.9756 24.8423C57.9903 24.6806 58.0344 24.5189 58.1079 24.3572C58.1961 24.2102 58.2328 24.1294 58.2181 24.1147C58.2181 24.1 58.2255 24.0779 58.2402 24.0485C58.2696 24.0044 58.299 23.9603 58.3284 23.9162C58.3725 23.8721 58.4092 23.8207 58.4386 23.7619L58.5709 23.4312C58.6297 23.3283 58.6959 23.2254 58.7693 23.1225C58.8428 23.0196 58.9016 22.8947 58.9457 22.7477C58.9751 22.6595 59.0119 22.5786 59.056 22.5051C59.1148 22.4316 59.1736 22.3508 59.2324 22.2626C59.2765 22.1744 59.3132 22.0862 59.3426 21.998C59.372 21.8951 59.4088 21.7922 59.4529 21.6893C59.497 21.5717 59.5484 21.4541 59.6072 21.3365C59.6807 21.219 59.7542 21.1014 59.8277 20.9838C59.8865 20.8662 59.9379 20.778 59.982 20.7192C60.0261 20.6604 60.1143 20.6236 60.2466 20.6089C60.3054 20.5942 60.3715 20.6016 60.445 20.631C60.5185 20.6457 60.592 20.6383 60.6655 20.6089C60.8566 20.5208 60.9889 20.4767 61.0624 20.4767C61.1359 20.4767 61.1873 20.4546 61.2167 20.4105C61.3784 20.4252 61.496 20.4767 61.5695 20.5648C61.643 20.653 61.7312 20.7412 61.8341 20.8294C61.7459 21.2557 61.643 21.5864 61.5254 21.8216C61.4225 22.0421 61.3049 22.2773 61.1726 22.5272C61.0992 22.6448 61.0257 22.7771 60.9522 22.9241C60.8787 23.071 60.8125 23.2033 60.7537 23.3209C60.6802 23.4826 60.5994 23.6296 60.5112 23.7619C60.4377 23.8795 60.3715 24.0191 60.3128 24.1808C60.2834 24.2543 60.2466 24.3278 60.2025 24.4013C60.1731 24.4601 60.1437 24.5263 60.1143 24.5997C60.0849 24.7026 60.0408 24.7982 59.982 24.8864C59.9379 24.9599 59.8938 25.0334 59.8497 25.1069C59.8056 25.1951 59.7615 25.2833 59.7174 25.3714C59.6733 25.4596 59.6366 25.5552 59.6072 25.6581C59.5337 25.8345 59.4896 25.9447 59.4749 25.9888C59.4602 26.0182 59.4455 26.0476 59.4308 26.077C59.4014 26.2387 59.3573 26.371 59.2985 26.4739C59.2397 26.5768 59.2618 26.6503 59.3647 26.6944L59.4749 26.7385ZM70.411 15.8023C70.6021 15.8317 70.7638 15.8538 70.8961 15.8685C71.0284 15.8832 71.146 15.8979 71.2489 15.9126C71.3665 15.9126 71.4841 15.9126 71.6017 15.9126C71.7192 15.8979 71.8662 15.8758 72.0426 15.8464C72.366 15.8023 72.6526 15.7656 72.9025 15.7362C73.1671 15.6921 73.4537 15.6554 73.7624 15.626C73.8506 15.6113 73.9388 15.6113 74.027 15.626C74.1299 15.6407 74.2254 15.648 74.3136 15.648C74.5047 15.648 74.6885 15.6407 74.8648 15.626C75.0559 15.6113 75.2323 15.5966 75.394 15.5819C75.4528 15.5672 75.5043 15.5525 75.5484 15.5378C75.5925 15.5231 75.6366 15.5231 75.6806 15.5378C75.8129 15.5378 75.9452 15.5378 76.0775 15.5378C76.2098 15.5231 76.3274 15.5672 76.4303 15.6701C76.4744 15.817 76.4891 15.8979 76.4744 15.9126C76.4597 15.9273 76.445 15.9493 76.4303 15.9787C76.4156 16.1698 76.3862 16.2654 76.3421 16.2654C76.3127 16.2654 76.298 16.2801 76.298 16.3095C76.1804 16.3389 76.0775 16.3683 75.9893 16.3977C75.9158 16.4124 75.857 16.4565 75.8129 16.5299C75.5631 16.5887 75.3279 16.6034 75.1074 16.574C74.9016 16.5299 74.6885 16.5593 74.468 16.6622C74.3651 16.7063 74.2548 16.7651 74.1372 16.8386C74.0344 16.8974 73.9021 16.8974 73.7404 16.8386C73.5934 16.8386 73.4243 16.846 73.2332 16.8607C73.0422 16.8754 72.8584 16.8901 72.682 16.9048C72.344 16.9342 72.05 16.9636 71.8001 16.993C71.5649 17.0077 71.3371 17.0224 71.1166 17.0371C70.8961 17.0371 70.6683 17.0444 70.4331 17.0591C70.2126 17.0738 69.9407 17.0812 69.6173 17.0812C69.4997 17.1841 69.4188 17.309 69.3747 17.456C69.3453 17.603 69.2718 17.7206 69.1543 17.8088C69.0367 18.0881 68.9411 18.2791 68.8676 18.382C68.7941 18.4702 68.7427 18.5805 68.7133 18.7128C68.5075 18.9773 68.3164 19.2566 68.14 19.5506C67.9783 19.8299 67.7872 20.0945 67.5668 20.3444C67.5374 20.5061 67.4786 20.653 67.3904 20.7853C67.3169 20.9029 67.2654 21.0646 67.236 21.2704C67.0743 21.4909 66.9567 21.7334 66.8832 21.998C66.8097 22.2626 66.7142 22.5419 66.5966 22.8359C66.5672 22.9534 66.5305 23.071 66.4864 23.1886C66.457 23.2915 66.4202 23.4018 66.3761 23.5194C66.3173 23.6664 66.2438 23.806 66.1556 23.9383C66.0821 24.0559 66.0086 24.1882 65.9352 24.3352C65.9058 24.3646 65.8911 24.4087 65.8911 24.4675C65.8911 24.5116 65.8837 24.5483 65.869 24.5777C65.8249 24.6806 65.7808 24.7761 65.7367 24.8643C65.6926 24.9378 65.6559 25.0113 65.6265 25.0848C65.5971 25.1583 65.575 25.2392 65.5603 25.3274C65.5603 25.4008 65.5456 25.4743 65.5162 25.5478C65.5015 25.5919 65.4868 25.636 65.4721 25.6801C65.4574 25.7095 65.4427 25.7463 65.428 25.7904C65.3839 25.9962 65.3839 26.1358 65.428 26.2093C65.4721 26.2828 65.5089 26.3563 65.5383 26.4298C65.5677 26.518 65.5971 26.5988 65.6265 26.6723C65.6559 26.7311 65.6779 26.7973 65.6926 26.8708C65.7661 26.9002 65.8323 26.9296 65.8911 26.959C65.9646 26.9883 66.038 27.003 66.1115 27.003C66.1997 27.0177 66.2953 26.981 66.3982 26.8928C66.5011 26.7899 66.5893 26.7311 66.6628 26.7164C66.7657 26.687 66.8612 26.6723 66.9494 26.6723C67.0523 26.6723 67.1405 26.6503 67.214 26.6062C67.3022 26.5327 67.3757 26.4592 67.4345 26.3857C67.4933 26.3122 67.5741 26.2607 67.677 26.2313C67.9122 26.1725 68.0371 26.1285 68.0518 26.0991C68.0665 26.055 68.118 25.9962 68.2062 25.9227C68.3091 25.8492 68.3972 25.783 68.4707 25.7242C68.5589 25.6507 68.6618 25.5772 68.7794 25.5037C68.9264 25.4302 69.0073 25.3861 69.022 25.3714C69.0514 25.3568 69.1175 25.3053 69.2204 25.2171C69.3674 25.1436 69.4923 25.0628 69.5952 24.9746C69.6981 24.8864 69.8157 24.8055 69.948 24.732C70.095 24.6732 70.1832 24.6365 70.2126 24.6218C70.242 24.5924 70.2567 24.5703 70.2567 24.5557C70.2714 24.541 70.2861 24.5189 70.3008 24.4895C70.3302 24.4601 70.4037 24.4087 70.5213 24.3352C70.5801 24.2176 70.6462 24.122 70.7197 24.0485C70.7932 23.975 70.8814 23.8795 70.9843 23.7619C71.0725 23.659 71.1607 23.5708 71.2489 23.4973C71.3518 23.4238 71.44 23.3503 71.5135 23.2768C71.5576 23.2474 71.5943 23.218 71.6237 23.1886C71.6531 23.1445 71.7045 23.1151 71.778 23.1004C71.8662 23.0269 71.9324 22.9681 71.9765 22.9241C72.0353 22.8653 72.1235 22.7844 72.2411 22.6815C72.2705 22.6521 72.3072 22.6154 72.3513 22.5713C72.3954 22.5272 72.4321 22.4978 72.4615 22.4831C72.5203 22.4831 72.5644 22.5051 72.5938 22.5492C72.6379 22.5933 72.6894 22.6154 72.7482 22.6154C72.7335 22.8065 72.7261 22.9314 72.7261 22.9902C72.7261 23.0343 72.7114 23.0857 72.682 23.1445C72.5938 23.2768 72.4909 23.3503 72.3734 23.365C72.2705 23.3797 72.1896 23.4606 72.1308 23.6076C72.0867 23.5782 72.0279 23.5708 71.9544 23.5855C71.8956 23.6002 71.8515 23.6223 71.8221 23.6517C71.8515 23.7105 71.8662 23.7619 71.8662 23.806C71.8662 23.8501 71.8736 23.9015 71.8883 23.9603C71.6237 24.2249 71.4473 24.4381 71.3591 24.5997C71.1827 24.7908 71.0872 24.9011 71.0725 24.9305C71.0578 24.9452 71.0504 24.9525 71.0504 24.9525C71.0504 24.9525 71.0431 24.9599 71.0284 24.9746C71.0137 24.9893 70.9622 25.0407 70.874 25.1289C70.6683 25.2906 70.5139 25.4449 70.411 25.5919C70.3081 25.7389 70.1538 25.8712 69.948 25.9888C69.7863 26.1064 69.6761 26.1946 69.6173 26.2534C69.5585 26.3122 69.4703 26.393 69.3527 26.4959C69.2939 26.5547 69.2351 26.6209 69.1763 26.6944C69.1322 26.7532 69.0734 26.812 68.9999 26.8708C68.897 26.9443 68.7941 27.0104 68.6912 27.0692C68.603 27.128 68.5222 27.2015 68.4487 27.2897C68.2282 27.3926 68.0665 27.5102 67.9636 27.6425C67.8754 27.7748 67.7358 27.8997 67.5447 28.0173C67.4124 28.1055 67.2287 28.2157 66.9935 28.348C66.773 28.4803 66.5819 28.5759 66.4202 28.6346C66.3761 28.6493 66.332 28.664 66.2879 28.6787C66.2585 28.6934 66.2218 28.7081 66.1777 28.7228C66.0601 28.6493 65.9425 28.5759 65.8249 28.5024C65.722 28.4289 65.6338 28.326 65.5603 28.1937C65.428 28.0908 65.3178 28.0173 65.2296 27.9732C65.1561 27.9291 65.0826 27.8703 65.0091 27.7968C64.8621 27.5469 64.6931 27.297 64.502 27.0471C64.3256 26.7973 64.186 26.518 64.0831 26.2093C64.0537 26.1505 64.0316 26.0917 64.0169 26.0329C64.0169 25.9594 64.0096 25.8859 63.9949 25.8124C63.9655 25.6948 63.9361 25.5919 63.9067 25.5037C63.8773 25.4155 63.8699 25.3053 63.8846 25.173C63.8846 25.0848 63.8993 24.9893 63.9287 24.8864C63.9581 24.7835 63.9875 24.6732 64.0169 24.5557C64.0757 24.3646 64.1419 24.1808 64.2154 24.0044C64.3036 23.828 64.3697 23.637 64.4138 23.4312C64.4579 23.2695 64.502 23.1225 64.5461 22.9902C64.5902 22.8579 64.6416 22.7109 64.7004 22.5492C64.7298 22.4757 64.7445 22.4096 64.7445 22.3508C64.7592 22.2773 64.8033 22.2258 64.8768 22.1964C64.9356 21.9025 65.0312 21.6232 65.1635 21.3586C65.2957 21.0793 65.428 20.8147 65.5603 20.5648C65.722 20.2562 65.869 19.9401 66.0013 19.6168C66.1483 19.2934 66.3026 18.9773 66.4643 18.6687C66.479 18.4923 66.5378 18.3453 66.6407 18.2277C66.6554 18.066 66.7142 17.9117 66.8171 17.7647C66.92 17.603 66.9935 17.4413 67.0376 17.2796C66.8759 17.2355 66.6922 17.2355 66.4864 17.2796C66.2953 17.309 66.1262 17.3384 65.9792 17.3678C65.7147 17.3825 65.4354 17.3825 65.1414 17.3678C65.0385 17.3531 64.9356 17.3384 64.8327 17.3237C64.7445 17.2943 64.6563 17.2796 64.5681 17.2796C64.4358 17.2943 64.333 17.287 64.2595 17.2576C64.2007 17.2135 64.1345 17.2061 64.061 17.2355C63.8699 17.0738 63.7303 16.9636 63.6421 16.9048C63.5539 16.846 63.4731 16.7945 63.3996 16.7504C63.3114 16.6916 63.2379 16.6328 63.1791 16.574C63.1056 16.5005 63.0468 16.3977 63.0027 16.2654C63.0027 16.2213 63.0247 16.1845 63.0688 16.1551C63.1129 16.1257 63.1497 16.0963 63.1791 16.0669C63.2967 16.0375 63.429 16.0302 63.5759 16.0449C63.7229 16.0449 63.8405 16.0155 63.9287 15.9567C64.1639 15.9861 64.377 15.9714 64.5681 15.9126C64.7739 15.8538 64.9871 15.8317 65.2075 15.8464C65.2516 15.8464 65.2957 15.8538 65.3398 15.8685C65.3839 15.8832 65.428 15.8905 65.4721 15.8905C65.5456 15.9052 65.6044 15.9052 65.6485 15.8905C65.7073 15.8758 65.7735 15.8611 65.847 15.8464C65.9352 15.8317 66.0307 15.8317 66.1336 15.8464C66.2365 15.8611 66.3394 15.8611 66.4423 15.8464C66.6334 15.8317 66.8612 15.8538 67.1258 15.9126C67.4051 15.9567 67.6476 15.942 67.8534 15.8685C67.9269 15.6627 68.0077 15.4569 68.0959 15.2511C68.1988 15.0306 68.2797 14.8175 68.3385 14.6117C68.3972 14.5235 68.456 14.428 68.5148 14.3251C68.5736 14.2075 68.6177 14.0972 68.6471 13.9944C68.7353 13.8474 68.8015 13.7298 68.8456 13.6416C68.9044 13.5534 68.9705 13.4652 69.044 13.377C69.1469 13.1712 69.2204 12.9728 69.2645 12.7817C69.3233 12.5759 69.3968 12.3554 69.485 12.1202C69.6761 11.9144 69.8672 11.6645 70.0582 11.3706C70.1611 11.3853 70.242 11.3559 70.3008 11.2824C70.3743 11.2089 70.4772 11.2162 70.6095 11.3044C70.6095 11.3485 70.6242 11.3926 70.6536 11.4367C70.6977 11.4661 70.705 11.5176 70.6756 11.5911C70.7491 11.6645 70.8079 11.7307 70.852 11.7895C70.8961 11.8483 70.9328 11.9144 70.9622 11.9879C70.9916 12.1055 70.9769 12.2452 70.9181 12.4069C70.874 12.5538 70.8887 12.6935 70.9622 12.8258C70.9916 12.8993 70.999 12.9728 70.9843 13.0463C70.9696 13.1051 70.9769 13.1639 71.0063 13.2227C71.0357 13.2961 71.0725 13.3696 71.1166 13.4431C71.1754 13.5166 71.2048 13.6122 71.2048 13.7298C71.2048 13.7739 71.1901 13.8327 71.1607 13.9062C71.146 13.965 71.1239 14.0311 71.0945 14.1046C71.0357 14.3251 70.9916 14.4794 70.9622 14.5676C70.9328 14.6558 70.9034 14.7514 70.874 14.8543C70.7712 14.9718 70.7197 15.0527 70.7197 15.0968C70.7197 15.1262 70.7124 15.1556 70.6977 15.185C70.6536 15.2732 70.6021 15.3834 70.5433 15.5157C70.4992 15.6333 70.4551 15.7288 70.411 15.8023ZM77.1138 15.8023C77.3049 15.8317 77.4666 15.8538 77.5989 15.8685C77.7312 15.8832 77.8488 15.8979 77.9517 15.9126C78.0692 15.9126 78.1868 15.9126 78.3044 15.9126C78.422 15.8979 78.569 15.8758 78.7454 15.8464C79.0688 15.8023 79.3554 15.7656 79.6053 15.7362C79.8699 15.6921 80.1565 15.6554 80.4652 15.626C80.5534 15.6113 80.6416 15.6113 80.7298 15.626C80.8327 15.6407 80.9282 15.648 81.0164 15.648C81.2075 15.648 81.3912 15.6407 81.5676 15.626C81.7587 15.6113 81.9351 15.5966 82.0968 15.5819C82.1556 15.5672 82.207 15.5525 82.2511 15.5378C82.2952 15.5231 82.3393 15.5231 82.3834 15.5378C82.5157 15.5378 82.648 15.5378 82.7803 15.5378C82.9126 15.5231 83.0302 15.5672 83.1331 15.6701C83.1772 15.817 83.1919 15.8979 83.1772 15.9126C83.1625 15.9273 83.1478 15.9493 83.1331 15.9787C83.1184 16.1698 83.089 16.2654 83.0449 16.2654C83.0155 16.2654 83.0008 16.2801 83.0008 16.3095C82.8832 16.3389 82.7803 16.3683 82.6921 16.3977C82.6186 16.4124 82.5598 16.4565 82.5157 16.5299C82.2658 16.5887 82.0307 16.6034 81.8102 16.574C81.6044 16.5299 81.3912 16.5593 81.1708 16.6622C81.0679 16.7063 80.9576 16.7651 80.84 16.8386C80.7371 16.8974 80.6048 16.8974 80.4432 16.8386C80.2962 16.8386 80.1271 16.846 79.936 16.8607C79.7449 16.8754 79.5612 16.8901 79.3848 16.9048C79.0467 16.9342 78.7528 16.9636 78.5029 16.993C78.2677 17.0077 78.0399 17.0224 77.8194 17.0371C77.5989 17.0371 77.371 17.0444 77.1359 17.0591C76.9154 17.0738 76.6434 17.0812 76.3201 17.0812C76.2025 17.1841 76.1216 17.309 76.0775 17.456C76.0481 17.603 75.9746 17.7206 75.857 17.8088C75.7394 18.0881 75.6439 18.2791 75.5704 18.382C75.4969 18.4702 75.4455 18.5805 75.4161 18.7128C75.2103 18.9773 75.0192 19.2566 74.8428 19.5506C74.6811 19.8299 74.49 20.0945 74.2695 20.3444C74.2401 20.5061 74.1813 20.653 74.0931 20.7853C74.0197 20.9029 73.9682 21.0646 73.9388 21.2704C73.7771 21.4909 73.6595 21.7334 73.586 21.998C73.5125 22.2626 73.417 22.5419 73.2994 22.8359C73.27 22.9534 73.2332 23.071 73.1892 23.1886C73.1598 23.2915 73.123 23.4018 73.0789 23.5194C73.0201 23.6664 72.9466 23.806 72.8584 23.9383C72.7849 24.0559 72.7114 24.1882 72.6379 24.3352C72.6085 24.3646 72.5938 24.4087 72.5938 24.4675C72.5938 24.5116 72.5865 24.5483 72.5718 24.5777C72.5277 24.6806 72.4836 24.7761 72.4395 24.8643C72.3954 24.9378 72.3587 25.0113 72.3293 25.0848C72.2999 25.1583 72.2778 25.2392 72.2631 25.3274C72.2631 25.4008 72.2484 25.4743 72.219 25.5478C72.2043 25.5919 72.1896 25.636 72.1749 25.6801C72.1602 25.7095 72.1455 25.7463 72.1308 25.7904C72.0867 25.9962 72.0867 26.1358 72.1308 26.2093C72.1749 26.2828 72.2117 26.3563 72.2411 26.4298C72.2705 26.518 72.2999 26.5988 72.3293 26.6723C72.3587 26.7311 72.3807 26.7973 72.3954 26.8708C72.4689 26.9002 72.535 26.9296 72.5938 26.959C72.6673 26.9883 72.7408 27.003 72.8143 27.003C72.9025 27.0177 72.9981 26.981 73.101 26.8928C73.2039 26.7899 73.292 26.7311 73.3655 26.7164C73.4684 26.687 73.564 26.6723 73.6522 26.6723C73.7551 26.6723 73.8433 26.6503 73.9168 26.6062C74.005 26.5327 74.0784 26.4592 74.1372 26.3857C74.196 26.3122 74.2769 26.2607 74.3798 26.2313C74.615 26.1725 74.7399 26.1285 74.7546 26.0991C74.7693 26.055 74.8208 25.9962 74.9089 25.9227C75.0118 25.8492 75.1 25.783 75.1735 25.7242C75.2617 25.6507 75.3646 25.5772 75.4822 25.5037C75.6292 25.4302 75.71 25.3861 75.7247 25.3714C75.7541 25.3568 75.8203 25.3053 75.9232 25.2171C76.0702 25.1436 76.1951 25.0628 76.298 24.9746C76.4009 24.8864 76.5185 24.8055 76.6508 24.732C76.7978 24.6732 76.886 24.6365 76.9154 24.6218C76.9448 24.5924 76.9595 24.5703 76.9595 24.5557C76.9742 24.541 76.9889 24.5189 77.0036 24.4895C77.033 24.4601 77.1065 24.4087 77.2241 24.3352C77.2828 24.2176 77.349 24.122 77.4225 24.0485C77.496 23.975 77.5842 23.8795 77.6871 23.7619C77.7753 23.659 77.8635 23.5708 77.9517 23.4973C78.0546 23.4238 78.1427 23.3503 78.2162 23.2768C78.2603 23.2474 78.2971 23.218 78.3265 23.1886C78.3559 23.1445 78.4073 23.1151 78.4808 23.1004C78.569 23.0269 78.6352 22.9681 78.6793 22.9241C78.7381 22.8653 78.8263 22.7844 78.9438 22.6815C78.9732 22.6521 79.01 22.6154 79.0541 22.5713C79.0982 22.5272 79.1349 22.4978 79.1643 22.4831C79.2231 22.4831 79.2672 22.5051 79.2966 22.5492C79.3407 22.5933 79.3922 22.6154 79.451 22.6154C79.4363 22.8065 79.4289 22.9314 79.4289 22.9902C79.4289 23.0343 79.4142 23.0857 79.3848 23.1445C79.2966 23.2768 79.1937 23.3503 79.0761 23.365C78.9732 23.3797 78.8924 23.4606 78.8336 23.6076C78.7895 23.5782 78.7307 23.5708 78.6572 23.5855C78.5984 23.6002 78.5543 23.6223 78.5249 23.6517C78.5543 23.7105 78.569 23.7619 78.569 23.806C78.569 23.8501 78.5764 23.9015 78.5911 23.9603C78.3265 24.2249 78.1501 24.4381 78.0619 24.5997C77.8855 24.7908 77.79 24.9011 77.7753 24.9305C77.7606 24.9452 77.7532 24.9525 77.7532 24.9525C77.7532 24.9525 77.7459 24.9599 77.7312 24.9746C77.7165 24.9893 77.665 25.0407 77.5768 25.1289C77.371 25.2906 77.2167 25.4449 77.1138 25.5919C77.0109 25.7389 76.8566 25.8712 76.6508 25.9888C76.4891 26.1064 76.3789 26.1946 76.3201 26.2534C76.2613 26.3122 76.1731 26.393 76.0555 26.4959C75.9967 26.5547 75.9379 26.6209 75.8791 26.6944C75.835 26.7532 75.7762 26.812 75.7027 26.8708C75.5998 26.9443 75.4969 27.0104 75.394 27.0692C75.3058 27.128 75.225 27.2015 75.1515 27.2897C74.931 27.3926 74.7693 27.5102 74.6664 27.6425C74.5782 27.7748 74.4386 27.8997 74.2475 28.0173C74.1152 28.1055 73.9315 28.2157 73.6963 28.348C73.4758 28.4803 73.2847 28.5759 73.123 28.6346C73.0789 28.6493 73.0348 28.664 72.9907 28.6787C72.9613 28.6934 72.9246 28.7081 72.8805 28.7228C72.7629 28.6493 72.6453 28.5759 72.5277 28.5024C72.4248 28.4289 72.3366 28.326 72.2631 28.1937C72.1308 28.0908 72.0206 28.0173 71.9324 27.9732C71.8589 27.9291 71.7854 27.8703 71.7119 27.7968C71.5649 27.5469 71.3959 27.297 71.2048 27.0471C71.0284 26.7973 70.8887 26.518 70.7859 26.2093C70.7565 26.1505 70.7344 26.0917 70.7197 26.0329C70.7197 25.9594 70.7124 25.8859 70.6977 25.8124C70.6683 25.6948 70.6389 25.5919 70.6095 25.5037C70.5801 25.4155 70.5727 25.3053 70.5874 25.173C70.5874 25.0848 70.6021 24.9893 70.6315 24.8864C70.6609 24.7835 70.6903 24.6732 70.7197 24.5557C70.7785 24.3646 70.8446 24.1808 70.9181 24.0044C71.0063 23.828 71.0725 23.637 71.1166 23.4312C71.1607 23.2695 71.2048 23.1225 71.2489 22.9902C71.293 22.8579 71.3444 22.7109 71.4032 22.5492C71.4326 22.4757 71.4473 22.4096 71.4473 22.3508C71.462 22.2773 71.5061 22.2258 71.5796 22.1964C71.6384 21.9025 71.7339 21.6232 71.8662 21.3586C71.9985 21.0793 72.1308 20.8147 72.2631 20.5648C72.4248 20.2562 72.5718 19.9401 72.7041 19.6168C72.8511 19.2934 73.0054 18.9773 73.1671 18.6687C73.1818 18.4923 73.2406 18.3453 73.3435 18.2277C73.3582 18.066 73.417 17.9117 73.5199 17.7647C73.6228 17.603 73.6963 17.4413 73.7404 17.2796C73.5787 17.2355 73.3949 17.2355 73.1892 17.2796C72.9981 17.309 72.829 17.3384 72.682 17.3678C72.4174 17.3825 72.1382 17.3825 71.8442 17.3678C71.7413 17.3531 71.6384 17.3384 71.5355 17.3237C71.4473 17.2943 71.3591 17.2796 71.2709 17.2796C71.1386 17.2943 71.0357 17.287 70.9622 17.2576C70.9034 17.2135 70.8373 17.2061 70.7638 17.2355C70.5727 17.0738 70.4331 16.9636 70.3449 16.9048C70.2567 16.846 70.1758 16.7945 70.1023 16.7504C70.0141 16.6916 69.9407 16.6328 69.8819 16.574C69.8084 16.5005 69.7496 16.3977 69.7055 16.2654C69.7055 16.2213 69.7275 16.1845 69.7716 16.1551C69.8157 16.1257 69.8525 16.0963 69.8819 16.0669C69.9994 16.0375 70.1317 16.0302 70.2787 16.0449C70.4257 16.0449 70.5433 16.0155 70.6315 15.9567C70.8667 15.9861 71.0798 15.9714 71.2709 15.9126C71.4767 15.8538 71.6898 15.8317 71.9103 15.8464C71.9544 15.8464 71.9985 15.8538 72.0426 15.8685C72.0867 15.8832 72.1308 15.8905 72.1749 15.8905C72.2484 15.9052 72.3072 15.9052 72.3513 15.8905C72.4101 15.8758 72.4762 15.8611 72.5497 15.8464C72.6379 15.8317 72.7335 15.8317 72.8364 15.8464C72.9393 15.8611 73.0422 15.8611 73.1451 15.8464C73.3361 15.8317 73.564 15.8538 73.8286 15.9126C74.1078 15.9567 74.3504 15.942 74.5562 15.8685C74.6297 15.6627 74.7105 15.4569 74.7987 15.2511C74.9016 15.0306 74.9824 14.8175 75.0412 14.6117C75.1 14.5235 75.1588 14.428 75.2176 14.3251C75.2764 14.2075 75.3205 14.0972 75.3499 13.9944C75.4381 13.8474 75.5043 13.7298 75.5484 13.6416C75.6072 13.5534 75.6733 13.4652 75.7468 13.377C75.8497 13.1712 75.9232 12.9728 75.9673 12.7817C76.0261 12.5759 76.0996 12.3554 76.1878 12.1202C76.3789 11.9144 76.5699 11.6645 76.761 11.3706C76.8639 11.3853 76.9448 11.3559 77.0036 11.2824C77.0771 11.2089 77.18 11.2162 77.3122 11.3044C77.3122 11.3485 77.3269 11.3926 77.3563 11.4367C77.4004 11.4661 77.4078 11.5176 77.3784 11.5911C77.4519 11.6645 77.5107 11.7307 77.5548 11.7895C77.5989 11.8483 77.6356 11.9144 77.665 11.9879C77.6944 12.1055 77.6797 12.2452 77.6209 12.4069C77.5768 12.5538 77.5915 12.6935 77.665 12.8258C77.6944 12.8993 77.7018 12.9728 77.6871 13.0463C77.6724 13.1051 77.6797 13.1639 77.7091 13.2227C77.7385 13.2961 77.7753 13.3696 77.8194 13.4431C77.8782 13.5166 77.9076 13.6122 77.9076 13.7298C77.9076 13.7739 77.8929 13.8327 77.8635 13.9062C77.8488 13.965 77.8267 14.0311 77.7973 14.1046C77.7385 14.3251 77.6944 14.4794 77.665 14.5676C77.6356 14.6558 77.6062 14.7514 77.5768 14.8543C77.4739 14.9718 77.4225 15.0527 77.4225 15.0968C77.4225 15.1262 77.4151 15.1556 77.4004 15.185C77.3563 15.2732 77.3049 15.3834 77.2461 15.5157C77.202 15.6333 77.1579 15.7288 77.1138 15.8023ZM84.1914 22.7697C84.3531 22.8138 84.456 22.8653 84.5001 22.9241C84.5589 22.9828 84.5883 23.0416 84.5883 23.1004C84.4707 23.2621 84.3972 23.3724 84.3678 23.4312C84.3531 23.4753 84.309 23.512 84.2355 23.5414C84.0444 23.8354 83.8239 24.1 83.5741 24.3352C83.3389 24.5557 83.1184 24.8055 82.9126 25.0848C82.8391 25.1583 82.773 25.2318 82.7142 25.3053C82.6554 25.3788 82.5892 25.4523 82.5157 25.5258C82.354 25.6434 82.207 25.7757 82.0748 25.9227C81.9425 26.055 81.8028 26.1799 81.6558 26.2975C81.5823 26.3563 81.5088 26.4151 81.4353 26.4739C81.3765 26.518 81.3104 26.5768 81.2369 26.6503C81.1634 26.7238 81.0973 26.7826 81.0385 26.8267C80.9797 26.8708 80.9135 26.9222 80.84 26.981C80.7518 27.0839 80.6636 27.1868 80.5754 27.2897C80.4873 27.3926 80.3991 27.5028 80.3109 27.6204C80.1492 27.6939 80.0022 27.7821 79.8699 27.885C79.7376 27.9879 79.5833 28.0761 79.4069 28.1496C79.3334 28.1937 79.2599 28.2598 79.1864 28.348C79.1276 28.4509 79.0467 28.5171 78.9438 28.5465C78.8263 28.5906 78.7013 28.5979 78.569 28.5685C78.4367 28.5538 78.3265 28.5244 78.2383 28.4803C78.1648 28.4215 78.106 28.3848 78.0619 28.3701C78.0178 28.3554 77.9811 28.348 77.9517 28.348C77.8194 28.1569 77.7238 27.9511 77.665 27.7307C77.6062 27.4955 77.5401 27.2529 77.4666 27.003C77.4372 26.9296 77.4151 26.8561 77.4004 26.7826C77.3857 26.6944 77.371 26.5988 77.3563 26.4959C77.3416 26.4371 77.3269 26.3783 77.3122 26.3195C77.3122 26.2607 77.2975 26.1946 77.2681 26.1211C77.2388 26.0476 77.2094 25.9741 77.18 25.9006C77.1506 25.8124 77.1285 25.7242 77.1138 25.636C77.0844 25.4596 77.0771 25.2906 77.0918 25.1289C77.0918 24.9525 77.1065 24.7835 77.1359 24.6218C77.2241 24.1367 77.349 23.6737 77.5107 23.2327C77.6871 22.7918 77.8635 22.3728 78.0399 21.976C78.0693 21.8143 78.106 21.6746 78.1501 21.557C78.2089 21.4394 78.2603 21.3072 78.3044 21.1602C78.3779 21.0573 78.4294 20.9397 78.4588 20.8074C78.4882 20.6751 78.5249 20.5428 78.569 20.4105C78.6131 20.2929 78.6646 20.168 78.7234 20.0357C78.7969 19.8887 78.8483 19.749 78.8777 19.6168C78.9218 19.4698 78.9585 19.3228 78.9879 19.1758C79.032 19.0288 79.0835 18.8965 79.1423 18.7789C79.2599 18.4702 79.3701 18.1762 79.473 17.897C79.5759 17.6177 79.6861 17.3384 79.8037 17.0591C79.8331 16.9709 79.8625 16.8827 79.8919 16.7945C79.9213 16.7063 79.9654 16.6255 80.0242 16.552C80.0536 16.4638 80.0904 16.3903 80.1345 16.3315C80.1786 16.258 80.2227 16.1845 80.2668 16.111C80.2668 16.0375 80.2888 15.9861 80.3329 15.9567C80.3917 15.9126 80.4358 15.8611 80.4652 15.8023C80.5387 15.6847 80.5901 15.5672 80.6195 15.4496C80.6636 15.332 80.7224 15.2144 80.7959 15.0968L81.0605 14.7661C81.0899 14.7073 81.1193 14.6485 81.1487 14.5897C81.1781 14.5309 81.2222 14.4794 81.281 14.4353C81.4427 14.1707 81.6191 13.9062 81.8102 13.6416C82.0013 13.377 82.1997 13.0977 82.4055 12.8037C82.5378 12.5979 82.6848 12.4069 82.8465 12.2305C83.0081 12.0394 83.1772 11.8556 83.3536 11.6792C83.4124 11.6058 83.4785 11.5249 83.552 11.4367C83.6402 11.3485 83.7284 11.2971 83.8166 11.2824C83.9489 11.2677 84.0959 11.2824 84.2576 11.3265C84.3017 11.4 84.3384 11.4808 84.3678 11.569C84.4119 11.6425 84.4487 11.7307 84.4781 11.8336C84.5075 12.2893 84.4928 12.7302 84.434 13.1565C84.3752 13.5828 84.309 14.0017 84.2355 14.4133C84.2208 14.4868 84.2135 14.5603 84.2135 14.6338C84.2282 14.6926 84.2282 14.7587 84.2135 14.8322C84.1841 14.9204 84.1473 15.038 84.1032 15.185C84.0591 15.3173 84.0224 15.4422 83.993 15.5598C83.993 15.7656 83.9489 15.9493 83.8607 16.111C83.7725 16.2727 83.7137 16.4344 83.6843 16.5961C83.6402 16.6255 83.6108 16.6769 83.5961 16.7504C83.5961 16.8092 83.5741 16.8533 83.53 16.8827C83.5006 17.0444 83.4491 17.1914 83.3756 17.3237C83.3168 17.456 83.2654 17.5883 83.2213 17.7206C83.0008 18.0293 82.773 18.3306 82.5378 18.6246C82.3173 18.9039 82.1041 19.1978 81.8984 19.5065C81.6485 19.8887 81.3765 20.2562 81.0826 20.6089C80.8033 20.9617 80.5387 21.3292 80.2888 21.7114C80.0977 21.8731 79.936 22.0568 79.8037 22.2626C79.6715 22.4684 79.5024 22.6521 79.2966 22.8138C79.2231 23.1078 79.1496 23.4312 79.0761 23.7839C79.0173 24.122 78.9512 24.4675 78.8777 24.8202C78.863 24.9231 78.841 25.026 78.8116 25.1289C78.7822 25.2171 78.7528 25.3127 78.7234 25.4155C78.694 25.5331 78.6866 25.6581 78.7013 25.7904C78.716 25.9227 78.694 26.0476 78.6352 26.1652C78.6646 26.2387 78.6793 26.3269 78.6793 26.4298C78.694 26.518 78.7234 26.5988 78.7675 26.6723C78.7969 26.7164 78.8336 26.7605 78.8777 26.8046C78.9365 26.8487 78.9879 26.8708 79.032 26.8708C79.1349 26.812 79.1937 26.7899 79.2084 26.8046C79.2231 26.8046 79.2452 26.7973 79.2746 26.7826C79.3481 26.7385 79.4216 26.6797 79.4951 26.6062C79.5686 26.5327 79.6347 26.4665 79.6935 26.4077C79.767 26.3783 79.8184 26.3489 79.8478 26.3195C79.8919 26.2754 79.936 26.2387 79.9801 26.2093C80.0242 26.1799 80.061 26.1579 80.0904 26.1432C80.1345 26.1285 80.1712 26.1064 80.2006 26.077C80.4064 25.8565 80.6048 25.6948 80.7959 25.5919C80.987 25.4743 81.1414 25.3347 81.259 25.173C81.4059 25.0848 81.5382 25.004 81.6558 24.9305C81.744 24.8864 81.8175 24.8276 81.8763 24.7541C81.9498 24.6659 82.038 24.5997 82.1409 24.5557C82.1703 24.5116 82.1997 24.4748 82.2291 24.4454C82.2585 24.416 82.2879 24.3793 82.3173 24.3352C82.4937 24.2176 82.6627 24.1 82.8244 23.9824C83.0008 23.8648 83.1845 23.7472 83.3756 23.6296C83.405 23.5561 83.4491 23.4973 83.5079 23.4532C83.5814 23.4091 83.6402 23.365 83.6843 23.3209C83.7284 23.2768 83.7651 23.2327 83.7945 23.1886C83.8239 23.1298 83.8754 23.0931 83.9489 23.0784C83.9636 23.0049 83.993 22.9534 84.0371 22.9241C84.0959 22.8947 84.1473 22.8432 84.1914 22.7697ZM82.9787 14.5456C82.8465 14.575 82.7509 14.6411 82.6921 14.744C82.648 14.8469 82.6039 14.9645 82.5598 15.0968C82.501 15.2144 82.4496 15.3026 82.4055 15.3614C82.3761 15.4202 82.3687 15.5084 82.3834 15.626C81.9278 16.3756 81.5088 17.162 81.1267 17.9852C80.7592 18.8083 80.3844 19.6388 80.0022 20.4767C80.2962 20.1827 80.5681 19.8299 80.818 19.4183C81.0826 19.0067 81.3545 18.654 81.6338 18.36C81.8396 17.8602 82.0674 17.3972 82.3173 16.9709C82.5672 16.5299 82.7583 16.0375 82.8906 15.4937C82.8318 15.3173 82.8391 15.1629 82.9126 15.0306C82.9861 14.8836 83.0155 14.722 83.0008 14.5456H82.9787ZM86.727 21.6893C86.6241 21.8216 86.5212 21.9466 86.4183 22.0642C86.3154 22.1817 86.1978 22.292 86.0656 22.3949C85.9774 22.5566 85.8745 22.7036 85.7569 22.8359C85.6393 22.9681 85.5217 23.0931 85.4041 23.2107C85.3453 23.3283 85.2792 23.4238 85.2057 23.4973C85.1322 23.5561 85.0513 23.6223 84.9631 23.6958C84.919 23.7692 84.8602 23.8427 84.7867 23.9162C84.7279 23.9897 84.6691 24.0632 84.6103 24.1367C84.5662 24.2102 84.5295 24.2911 84.5001 24.3793C84.4707 24.4675 84.4781 24.563 84.5221 24.6659C84.6838 24.6953 84.8455 24.6732 85.0072 24.5997C85.1689 24.5263 85.3086 24.4601 85.4261 24.4013C85.5437 24.3278 85.6613 24.269 85.7789 24.2249C85.9112 24.1661 86.0288 24.1 86.1317 24.0265L86.705 23.4532C86.8079 23.365 86.8961 23.2695 86.9695 23.1666C87.043 23.0637 87.1239 22.9534 87.2121 22.8359C87.2415 22.6889 87.3003 22.5419 87.3885 22.3949C87.4767 22.2332 87.5134 22.0789 87.4987 21.9319C87.484 21.8437 87.4546 21.7702 87.4105 21.7114C87.3811 21.6379 87.3591 21.5644 87.3444 21.4909C87.1974 21.4909 87.0798 21.5203 86.9916 21.5791C86.9181 21.6232 86.8299 21.6599 86.727 21.6893ZM83.1772 23.1004C83.2066 23.0857 83.2654 23.0269 83.3536 22.9241C83.4565 22.8065 83.5667 22.6815 83.6843 22.5492C83.8019 22.4022 83.9121 22.2773 84.015 22.1744C84.1179 22.0568 84.1914 21.9907 84.2355 21.976C84.2796 21.9025 84.3164 21.8437 84.3458 21.7996C84.3899 21.7408 84.4487 21.6893 84.5221 21.6452C84.6397 21.4247 84.7941 21.2484 84.9852 21.1161C85.1763 20.9691 85.36 20.8 85.5364 20.6089C85.8157 20.4914 86.095 20.3444 86.3742 20.168C86.6682 19.9769 86.9916 19.874 87.3444 19.8593C87.5061 19.9328 87.6604 19.9548 87.8074 19.9254C87.9691 19.896 88.1161 19.9328 88.2484 20.0357C88.3219 20.168 88.388 20.2562 88.4468 20.3003C88.5056 20.3297 88.5497 20.3664 88.5791 20.4105C88.6379 20.6016 88.682 20.7265 88.7114 20.7853C88.7408 20.8294 88.7628 20.8882 88.7775 20.9617C88.7922 21.1822 88.8069 21.3439 88.8216 21.4468C88.8363 21.535 88.8363 21.6232 88.8216 21.7114C88.7775 22.1083 88.704 22.4831 88.6011 22.8359C88.5717 22.9241 88.5424 23.0196 88.513 23.1225C88.4836 23.2107 88.4468 23.2915 88.4027 23.365C88.2998 23.4973 88.219 23.6149 88.1602 23.7178C88.1161 23.806 88.072 23.8795 88.0279 23.9383C87.8515 24.1147 87.6972 24.2617 87.5649 24.3793C87.4326 24.4528 87.3003 24.5336 87.168 24.6218C87.0357 24.71 86.8887 24.7688 86.727 24.7982C86.6535 24.8423 86.5874 24.8864 86.5286 24.9305C86.4698 24.9599 86.3963 24.9819 86.3081 24.9966C86.1611 25.0995 86.0141 25.1804 85.8671 25.2392C85.7201 25.2833 85.5658 25.3421 85.4041 25.4155C85.3159 25.4449 85.2204 25.4964 85.1175 25.5699C85.0146 25.6434 84.9117 25.7022 84.8088 25.7463C84.7206 25.7757 84.6103 25.8051 84.4781 25.8345C84.3605 25.8492 84.2649 25.8712 84.1914 25.9006C84.2649 26.0623 84.2943 26.246 84.2796 26.4518C84.2649 26.6576 84.3017 26.8414 84.3899 27.003C84.5809 27.0471 84.7867 27.0839 85.0072 27.1133C85.2424 27.128 85.4629 27.1206 85.6687 27.0912C85.7422 27.0765 85.823 27.0545 85.9112 27.0251C85.9994 26.981 86.0876 26.9516 86.1758 26.9369C86.3375 26.9075 86.4918 26.8708 86.6388 26.8267C86.8005 26.7826 86.9401 26.7238 87.0577 26.6503C87.484 26.5033 87.8956 26.3048 88.2925 26.055C88.6893 25.8051 89.0348 25.5331 89.3288 25.2392C89.5051 25.1216 89.6962 24.9599 89.902 24.7541C90.1225 24.5483 90.2915 24.3572 90.4091 24.1808C90.6296 23.9456 90.8207 23.7619 90.9824 23.6296C91.1588 23.4973 91.3205 23.4385 91.4675 23.4532C91.5851 23.4532 91.6953 23.5267 91.7982 23.6737C91.9158 23.806 91.9084 23.953 91.7761 24.1147C91.6292 24.2029 91.4748 24.3352 91.3131 24.5116C91.1514 24.6879 90.9824 24.8129 90.806 24.8864C90.6737 24.9746 90.5047 25.1363 90.2989 25.3714C90.1078 25.6066 89.9461 25.783 89.8138 25.9006C89.755 25.9594 89.6742 26.0329 89.5713 26.1211C89.4831 26.1946 89.4096 26.2681 89.3508 26.3416C89.145 26.518 88.9245 26.6797 88.6893 26.8267C88.6011 26.7973 88.535 26.812 88.4909 26.8708C88.4468 26.9296 88.388 26.9883 88.3145 27.0471C88.2704 27.0765 88.219 27.1059 88.1602 27.1353C88.1161 27.1647 88.072 27.1941 88.0279 27.2235C87.9103 27.3264 87.778 27.4293 87.631 27.5322C87.4987 27.6351 87.3591 27.7233 87.2121 27.7968C86.9181 27.9732 86.6241 28.1202 86.3301 28.2378C86.0362 28.3701 85.7495 28.5318 85.4702 28.7228C85.382 28.7375 85.3012 28.7449 85.2277 28.7449C85.1542 28.7596 85.0807 28.7743 85.0072 28.789C84.919 28.8184 84.8382 28.8331 84.7647 28.8331C84.7059 28.8331 84.6177 28.8184 84.5001 28.789C84.2355 28.7155 84.015 28.6273 83.8386 28.5244C83.6623 28.4215 83.4859 28.2745 83.3095 28.0834C83.2213 27.9952 83.1257 27.9144 83.0228 27.8409C82.9199 27.7674 82.8391 27.6866 82.7803 27.5984C82.7362 27.5249 82.6848 27.4073 82.626 27.2456C82.5672 27.0839 82.5157 26.9149 82.4716 26.7385C82.4275 26.5474 82.3908 26.3636 82.3614 26.1872C82.332 26.0109 82.3173 25.8786 82.3173 25.7904C82.3467 25.7316 82.3834 25.6287 82.4275 25.4817C82.4569 25.3347 82.4937 25.1804 82.5378 25.0187C82.5672 24.8423 82.5966 24.6806 82.626 24.5336C82.6407 24.3866 82.648 24.2837 82.648 24.2249C82.6627 24.2102 82.6995 24.1514 82.7583 24.0485C82.8171 23.9309 82.8832 23.806 82.9567 23.6737C83.0155 23.5414 83.0669 23.4238 83.111 23.3209C83.1551 23.2033 83.1772 23.1298 83.1772 23.1004ZM108.533 13.4431C108.607 13.8253 108.695 14.1707 108.798 14.4794C108.901 14.7881 108.967 15.1262 108.996 15.4937C108.996 15.5819 108.989 15.6701 108.974 15.7582C108.974 15.8464 108.981 15.9346 108.996 16.0228V16.2874C108.996 16.405 108.981 16.5152 108.952 16.6181C108.937 16.721 108.93 16.8313 108.93 16.9489C108.915 17.2135 108.871 17.4707 108.798 17.7206C108.783 17.8823 108.768 17.9631 108.754 17.9631C108.739 17.9484 108.732 17.9558 108.732 17.9852C108.702 18.1468 108.68 18.3012 108.665 18.4482C108.651 18.5952 108.629 18.7495 108.599 18.9112C108.864 18.9406 109.165 18.9773 109.503 19.0214C109.856 19.0508 110.187 19.0508 110.495 19.0214C110.569 19.0067 110.635 18.9847 110.694 18.9553C110.767 18.9259 110.841 18.8965 110.914 18.8671C111.164 18.8377 111.363 18.7789 111.51 18.6907C111.657 18.6025 111.833 18.529 112.039 18.4702C111.98 18.6319 111.907 18.7275 111.818 18.7569C111.774 18.9039 111.73 19.0067 111.686 19.0655C111.657 19.1096 111.62 19.1464 111.576 19.1758C111.502 19.2346 111.436 19.286 111.377 19.3301C111.319 19.3595 111.252 19.4036 111.179 19.4624C110.944 19.5947 110.753 19.6682 110.606 19.6829C110.473 19.6829 110.348 19.705 110.231 19.749C110.128 19.7343 110.003 19.7196 109.856 19.705C109.724 19.6903 109.606 19.6903 109.503 19.705C109.43 19.6609 109.349 19.6388 109.261 19.6388C109.173 19.6388 109.084 19.6535 108.996 19.6829C108.82 19.7417 108.702 19.7858 108.643 19.8152C108.585 19.8299 108.526 19.8519 108.467 19.8813C108.438 19.9695 108.416 20.0357 108.401 20.0798C108.401 20.1239 108.393 20.1606 108.379 20.19C108.364 20.3517 108.349 20.5134 108.335 20.6751C108.335 20.8221 108.313 20.9764 108.269 21.1381C108.21 21.2704 108.18 21.3586 108.18 21.4027C108.18 21.4321 108.166 21.4762 108.136 21.535C108.092 21.6085 108.055 21.6967 108.026 21.7996C107.997 21.9025 107.967 22.0054 107.938 22.1083C107.864 22.1817 107.82 22.2699 107.806 22.3728C107.791 22.4757 107.776 22.586 107.761 22.7036C107.747 22.8212 107.71 22.9388 107.651 23.0563C107.592 23.1592 107.534 23.2621 107.475 23.365C107.445 23.4385 107.416 23.512 107.387 23.5855C107.357 23.6443 107.32 23.7105 107.276 23.7839C107.1 24.0044 106.931 24.2396 106.769 24.4895C106.696 24.6512 106.615 24.7982 106.527 24.9305C106.453 25.0481 106.38 25.1804 106.306 25.3274C106.189 25.5331 106.042 25.7169 105.865 25.8786C105.689 26.0256 105.512 26.1799 105.336 26.3416C105.248 26.4151 105.16 26.4959 105.071 26.5841C104.983 26.6723 104.902 26.7532 104.829 26.8267C104.755 26.9002 104.675 26.981 104.586 27.0692C104.513 27.1427 104.439 27.2162 104.366 27.2897C104.263 27.3632 104.153 27.444 104.035 27.5322C103.932 27.6057 103.822 27.6792 103.704 27.7527C103.469 27.885 103.234 28.0099 102.999 28.1275C102.778 28.2451 102.543 28.3774 102.293 28.5244C102.176 28.5979 102.066 28.664 101.963 28.7228C101.86 28.7963 101.749 28.8551 101.632 28.8992C101.544 28.9286 101.448 28.9433 101.345 28.9433C101.257 28.958 101.169 28.9727 101.081 28.9874C100.963 29.0168 100.853 29.0389 100.75 29.0536C100.647 29.083 100.529 29.0977 100.397 29.0977C100.235 29.083 100.052 29.0462 99.8459 28.9874C99.6549 28.9433 99.5079 28.8845 99.405 28.811C99.2139 28.6346 99.0963 28.5097 99.0522 28.4362C99.0228 28.3627 98.9714 28.2892 98.8979 28.2157C98.8832 28.1569 98.8611 28.1128 98.8317 28.0834C98.817 28.0687 98.8097 28.032 98.8097 27.9732C98.7068 27.8262 98.6259 27.6792 98.5671 27.5322C98.4348 27.2529 98.3393 27.0104 98.2805 26.8046C98.2364 26.5841 98.229 26.3563 98.2584 26.1211C98.229 25.8859 98.2143 25.6213 98.2143 25.3274C98.2143 25.0187 98.2143 24.7247 98.2143 24.4454C98.2143 24.3425 98.207 24.247 98.1923 24.1588C98.1923 24.0559 98.207 23.9677 98.2364 23.8942C98.2217 23.7766 98.207 23.6664 98.1923 23.5635C98.1923 23.4459 98.207 23.343 98.2364 23.2548C98.2511 23.1078 98.2584 22.9975 98.2584 22.9241C98.2731 22.8506 98.2952 22.7771 98.3246 22.7036C98.3981 22.6301 98.4275 22.5566 98.4128 22.4831C98.4128 22.4096 98.4275 22.3361 98.4569 22.2626C98.5157 21.8657 98.6112 21.5129 98.7435 21.2043C98.7876 21.0867 98.8317 20.9764 98.8758 20.8735C98.9199 20.7559 98.9567 20.6383 98.9861 20.5208C99.0742 20.2709 99.1698 20.043 99.2727 19.8372C99.3903 19.6315 99.5005 19.411 99.6034 19.1758C99.8092 18.7495 100.022 18.36 100.243 18.0072C100.478 17.6397 100.713 17.2649 100.948 16.8827C101.022 16.8386 101.073 16.7798 101.103 16.7063C101.132 16.6181 101.176 16.552 101.235 16.5079C101.353 16.258 101.492 16.0449 101.654 15.8685C101.816 15.6921 101.977 15.5157 102.139 15.3393C102.213 15.2805 102.279 15.2217 102.337 15.1629C102.396 15.0894 102.462 15.0159 102.536 14.9424C102.58 14.8983 102.624 14.8616 102.668 14.8322C102.727 14.7881 102.771 14.7367 102.8 14.6779C102.859 14.6485 102.911 14.6117 102.955 14.5676C103.014 14.5235 103.065 14.4794 103.109 14.4353C103.168 14.3912 103.227 14.3471 103.286 14.303C103.344 14.2589 103.403 14.2148 103.462 14.1707C103.58 14.0825 103.682 13.9944 103.771 13.9062C103.873 13.8033 103.984 13.7151 104.101 13.6416C104.219 13.6269 104.292 13.6195 104.322 13.6195C104.351 13.6195 104.366 13.5975 104.366 13.5534C104.542 13.4064 104.653 13.3035 104.697 13.2447C104.755 13.1712 104.807 13.0977 104.851 13.0242C104.969 12.9507 105.071 12.8699 105.16 12.7817C105.248 12.6788 105.351 12.5906 105.468 12.5171C105.557 12.4142 105.615 12.3481 105.645 12.3187C105.689 12.2893 105.733 12.2599 105.777 12.2305C105.806 12.1864 105.836 12.157 105.865 12.1423C105.909 12.1129 105.939 12.0835 105.953 12.0541C106.027 12.0247 106.093 11.9953 106.152 11.9659C106.211 11.9218 106.284 11.885 106.372 11.8556C106.475 11.8703 106.556 11.8703 106.615 11.8556C106.688 11.8409 106.755 11.8409 106.813 11.8556C106.902 11.8703 106.968 11.9071 107.012 11.9659C107.071 12.01 107.137 12.0614 107.21 12.1202C107.387 12.1496 107.519 12.2452 107.607 12.4069C107.71 12.5538 107.82 12.6641 107.938 12.7376C108.011 12.8552 108.092 12.9728 108.18 13.0904C108.283 13.1933 108.371 13.3108 108.445 13.4431H108.533ZM106.813 17.6544C106.887 17.7573 106.975 17.8529 107.078 17.9411C107.181 18.0146 107.284 18.0881 107.387 18.1615C107.387 17.7794 107.401 17.3678 107.431 16.9268C107.475 16.4712 107.482 16.0522 107.453 15.6701C107.409 15.5084 107.357 15.354 107.298 15.207C107.254 15.06 107.218 14.8983 107.188 14.722C107.129 14.6632 107.085 14.6044 107.056 14.5456C107.041 14.4868 107.019 14.428 106.99 14.3692C106.916 14.281 106.879 14.2295 106.879 14.2148C106.879 14.1854 106.865 14.156 106.835 14.1266C106.806 14.0972 106.769 14.0679 106.725 14.0385C106.696 14.0091 106.666 13.9723 106.637 13.9282C106.461 13.9135 106.314 13.9503 106.196 14.0385C106.093 14.1119 105.99 14.1854 105.887 14.2589C105.858 14.4647 105.851 14.6558 105.865 14.8322C105.88 15.0086 105.902 15.1776 105.931 15.3393C105.975 15.6186 106.02 15.8979 106.064 16.1772C106.108 16.4565 106.181 16.699 106.284 16.9048C106.299 17.0077 106.358 17.1326 106.461 17.2796C106.563 17.4119 106.681 17.5368 106.813 17.6544ZM103.859 15.7362C103.785 15.8097 103.712 15.8758 103.638 15.9346C103.565 15.9934 103.499 16.0669 103.44 16.1551C103.352 16.2286 103.278 16.3021 103.219 16.3756C103.161 16.4491 103.094 16.5226 103.021 16.5961C102.947 16.6696 102.881 16.7431 102.823 16.8166C102.764 16.8754 102.705 16.9489 102.646 17.0371C102.602 17.0665 102.565 17.1032 102.536 17.1473C102.506 17.1914 102.47 17.2355 102.426 17.2796C102.279 17.4707 102.176 17.603 102.117 17.6765C102.058 17.75 102.014 17.8235 101.985 17.897C101.896 17.9558 101.823 18.0366 101.764 18.1395C101.72 18.2277 101.676 18.3232 101.632 18.4261C101.544 18.5437 101.463 18.6687 101.389 18.801C101.316 18.9332 101.25 19.0655 101.191 19.1978C101.073 19.4036 101 19.5433 100.97 19.6168C100.956 19.6903 100.934 19.7637 100.904 19.8372C100.845 19.9254 100.794 20.043 100.75 20.19C100.5 20.7192 100.28 21.3219 100.088 21.998C100.059 22.1303 100.015 22.2552 99.9562 22.3728C99.9121 22.4904 99.8827 22.608 99.868 22.7256C99.8533 22.7844 99.8459 22.8432 99.8459 22.902C99.8606 22.9608 99.868 23.0196 99.868 23.0784C99.8533 23.2254 99.8386 23.3724 99.8239 23.5194C99.8092 23.6517 99.8019 23.7986 99.8019 23.9603C99.8019 24.2543 99.8019 24.5263 99.8019 24.7761C99.8019 25.026 99.8166 25.2833 99.8459 25.5478C99.8459 25.7389 99.8606 25.8933 99.89 26.0109C99.9194 26.0697 99.9709 26.1285 100.044 26.1872C100.118 26.246 100.184 26.2975 100.243 26.3416C100.36 26.4592 100.478 26.5841 100.596 26.7164C100.713 26.834 100.875 26.8561 101.081 26.7826C101.154 26.8267 101.235 26.8267 101.323 26.7826C101.411 26.7385 101.5 26.7311 101.588 26.7605C101.661 26.7311 101.735 26.7164 101.808 26.7164C101.882 26.7017 101.955 26.6797 102.029 26.6503C102.146 26.6209 102.257 26.5915 102.359 26.5621C102.477 26.518 102.587 26.4812 102.69 26.4518C102.808 26.4077 102.925 26.371 103.043 26.3416C103.161 26.2975 103.271 26.246 103.374 26.1872C103.668 25.9374 103.881 25.7389 104.013 25.5919C104.116 25.489 104.219 25.4008 104.322 25.3274C104.425 25.2392 104.52 25.151 104.608 25.0628C104.682 24.9893 104.755 24.9158 104.829 24.8423C104.902 24.7541 104.969 24.6512 105.027 24.5336C105.071 24.4895 105.108 24.4454 105.138 24.4013C105.182 24.3425 105.218 24.2837 105.248 24.2249C105.321 24.1367 105.373 24.0412 105.402 23.9383C105.446 23.8354 105.505 23.7325 105.579 23.6296C105.667 23.3797 105.77 23.1445 105.887 22.9241C106.005 22.7036 106.1 22.4757 106.174 22.2405C106.306 21.9613 106.416 21.7187 106.505 21.5129C106.608 21.2925 106.681 21.072 106.725 20.8515C106.769 20.8074 106.791 20.7559 106.791 20.6971C106.806 20.6236 106.828 20.5648 106.857 20.5208C106.931 20.315 106.99 20.1165 107.034 19.9254C107.093 19.7343 107.151 19.5212 107.21 19.286C107.151 19.2566 107.1 19.2493 107.056 19.264C107.012 19.264 106.968 19.2493 106.924 19.2199C106.806 19.1758 106.696 19.1023 106.593 18.9994C106.505 18.8818 106.402 18.8157 106.284 18.801C106.225 18.7569 106.174 18.7201 106.13 18.6907C106.1 18.6613 106.056 18.6319 105.998 18.6025C105.762 18.3526 105.534 18.0954 105.314 17.8308C105.108 17.5515 104.939 17.2429 104.807 16.9048C104.675 16.6108 104.572 16.3389 104.498 16.089C104.425 15.8244 104.359 15.5451 104.3 15.2511C104.212 15.3393 104.131 15.4202 104.057 15.4937C103.998 15.5672 103.932 15.648 103.859 15.7362ZM111.201 25.2612C111.319 25.1877 111.414 25.0922 111.488 24.9746C111.561 24.857 111.649 24.7394 111.752 24.6218C111.943 24.4013 112.149 24.2176 112.37 24.0706C112.472 23.9236 112.597 23.8133 112.744 23.7399C112.906 23.6517 113.031 23.5267 113.119 23.365C113.149 23.3209 113.171 23.2768 113.185 23.2327C113.215 23.1886 113.244 23.1445 113.274 23.1004C113.538 22.733 113.839 22.4096 114.178 22.1303C114.266 22.0568 114.347 21.9833 114.42 21.9098C114.508 21.8363 114.611 21.7628 114.729 21.6893C114.861 21.6158 114.986 21.5203 115.104 21.4027C115.236 21.2851 115.376 21.1969 115.523 21.1381C115.625 21.094 115.721 21.0646 115.809 21.0499C115.897 21.0205 115.993 20.9911 116.096 20.9617C116.199 20.9323 116.287 20.9103 116.36 20.8956C116.449 20.8662 116.544 20.8662 116.647 20.8956C116.882 20.9985 117.059 21.1969 117.176 21.4909C117.206 21.5644 117.191 21.7261 117.132 21.976C117.088 22.2111 117.022 22.4757 116.934 22.7697C116.86 23.049 116.779 23.3209 116.691 23.5855C116.603 23.8501 116.544 24.0412 116.515 24.1588C116.485 24.2764 116.478 24.3425 116.493 24.3572C116.507 24.3572 116.515 24.3719 116.515 24.4013C116.485 24.4748 116.463 24.541 116.449 24.5997C116.434 24.6585 116.419 24.7247 116.404 24.7982C116.375 24.9158 116.353 25.0775 116.338 25.2833C116.324 25.4743 116.331 25.6287 116.36 25.7463C116.522 25.7316 116.603 25.7169 116.603 25.7022C116.618 25.6875 116.64 25.6801 116.669 25.6801C116.713 25.6654 116.757 25.6654 116.801 25.6801C116.86 25.6801 116.912 25.6728 116.956 25.6581C117.117 25.614 117.264 25.5552 117.397 25.4817C117.529 25.3935 117.654 25.2906 117.771 25.173C118.036 25.0554 118.279 24.9378 118.499 24.8202C118.705 24.6732 118.867 24.5703 118.984 24.5116C119.116 24.4381 119.308 24.3425 119.557 24.2249C119.646 24.122 119.771 24.0338 119.932 23.9603C120.109 23.8721 120.256 23.7766 120.373 23.6737C120.403 23.6443 120.439 23.6076 120.483 23.5635C120.528 23.5047 120.572 23.49 120.616 23.5194C120.689 23.5929 120.733 23.6737 120.748 23.7619C120.777 23.8354 120.785 23.8868 120.77 23.9162C120.653 24.0338 120.586 24.122 120.572 24.1808C120.572 24.2396 120.557 24.2837 120.528 24.3131C120.454 24.3866 120.344 24.4528 120.197 24.5116C120.065 24.5703 119.984 24.6218 119.954 24.6659C119.94 24.6953 119.918 24.7247 119.888 24.7541C119.859 24.7835 119.815 24.8202 119.756 24.8643C119.712 24.8937 119.675 24.9231 119.646 24.9525C119.616 24.9966 119.572 25.026 119.513 25.0407C119.469 25.0407 119.425 25.0481 119.381 25.0628C119.293 25.1363 119.219 25.2024 119.161 25.2612C119.102 25.32 119.036 25.3861 118.962 25.4596C118.845 25.5772 118.771 25.6654 118.742 25.7242C118.712 25.7683 118.631 25.8345 118.499 25.9227C118.426 25.9668 118.352 26.0109 118.279 26.055C118.205 26.0991 118.132 26.1432 118.058 26.1872C117.852 26.2901 117.647 26.4151 117.441 26.5621C117.235 26.7091 117.029 26.8561 116.823 27.003C116.676 27.0912 116.522 27.1721 116.36 27.2456C116.213 27.3044 116.074 27.3779 115.941 27.4661C115.883 27.4661 115.839 27.4661 115.809 27.4661C115.794 27.4514 115.758 27.4587 115.699 27.4881C115.625 27.444 115.552 27.444 115.478 27.4881C115.405 27.5175 115.331 27.5175 115.258 27.4881C115.111 27.3705 115.008 27.297 114.949 27.2676C114.905 27.2382 114.868 27.2015 114.839 27.1574C114.81 27.0839 114.795 27.003 114.795 26.9149C114.81 26.8267 114.795 26.7532 114.751 26.6944C114.751 26.371 114.758 26.0623 114.773 25.7683C114.802 25.4743 114.854 25.1657 114.927 24.8423C114.942 24.7394 114.971 24.5997 115.015 24.4234C115.06 24.2323 115.096 24.0485 115.126 23.8721C115.155 23.6958 115.177 23.5414 115.192 23.4091C115.206 23.2768 115.192 23.196 115.148 23.1666C114.986 23.2548 114.817 23.3871 114.641 23.5635C114.479 23.7399 114.325 23.8868 114.178 24.0044C114.06 24.0926 113.942 24.1735 113.825 24.247C113.722 24.3205 113.612 24.4013 113.494 24.4895C113.391 24.563 113.303 24.6365 113.229 24.71C113.156 24.7835 113.075 24.8717 112.987 24.9746C112.884 25.0775 112.788 25.1804 112.7 25.2833C112.612 25.3714 112.509 25.4596 112.392 25.5478C112.333 25.6066 112.274 25.6581 112.215 25.7022C112.171 25.7316 112.127 25.7683 112.083 25.8124C112.009 25.8859 111.936 25.9594 111.862 26.0329C111.804 26.0917 111.723 26.1432 111.62 26.1872C111.532 26.3048 111.414 26.4371 111.267 26.5841C111.135 26.7311 110.995 26.8928 110.848 27.0692C110.716 27.2309 110.584 27.3926 110.451 27.5543C110.319 27.716 110.216 27.8629 110.143 27.9952C109.966 28.1422 109.775 28.2672 109.569 28.3701C109.378 28.4877 109.143 28.5024 108.864 28.4142C108.717 28.326 108.621 28.2525 108.577 28.1937C108.533 28.1349 108.482 28.0908 108.423 28.0614C108.438 27.8997 108.452 27.7454 108.467 27.5984C108.482 27.4514 108.526 27.297 108.599 27.1353C108.614 27.1059 108.636 27.0765 108.665 27.0471C108.68 27.003 108.702 26.959 108.732 26.9149C108.805 26.7826 108.856 26.6356 108.886 26.4739C108.901 26.3122 108.945 26.1579 109.018 26.0109C109.106 25.8639 109.165 25.7463 109.195 25.6581C109.209 25.5552 109.239 25.467 109.283 25.3935C109.312 25.32 109.356 25.2539 109.415 25.1951C109.459 25.1216 109.496 25.0481 109.525 24.9746C109.555 24.9011 109.606 24.8202 109.68 24.732C109.753 24.6291 109.805 24.541 109.834 24.4675C109.878 24.3058 109.93 24.1441 109.988 23.9824C110.047 23.8207 110.113 23.659 110.187 23.4973C110.216 23.3944 110.246 23.2989 110.275 23.2107C110.304 23.1078 110.341 23.0122 110.385 22.9241C110.459 22.7624 110.532 22.608 110.606 22.461C110.679 22.2993 110.753 22.1377 110.826 21.976C110.87 21.8878 110.907 21.8143 110.936 21.7555C110.981 21.682 111.032 21.6085 111.091 21.535C111.135 21.4615 111.172 21.388 111.201 21.3145C111.245 21.241 111.289 21.1675 111.333 21.094C111.377 21.0205 111.414 20.9397 111.444 20.8515C111.488 20.7486 111.546 20.653 111.62 20.5648C111.723 20.4473 111.804 20.337 111.862 20.2341C111.921 20.1312 112.017 20.0651 112.149 20.0357C112.208 20.0651 112.267 20.0651 112.325 20.0357C112.399 20.0063 112.465 19.9842 112.524 19.9695C112.597 19.9401 112.664 19.9254 112.722 19.9254C112.781 19.9107 112.833 19.9328 112.877 19.9916C113.068 20.1092 113.207 20.2121 113.296 20.3003C113.384 20.3885 113.443 20.4693 113.472 20.5428C113.545 20.6751 113.553 20.8147 113.494 20.9617C113.435 21.094 113.332 21.2116 113.185 21.3145C113.127 21.5644 113.024 21.7996 112.877 22.0201C112.73 22.2405 112.597 22.4537 112.48 22.6595C112.45 22.733 112.421 22.8065 112.392 22.88C112.362 22.9534 112.333 23.0269 112.303 23.1004C112.215 23.3062 112.12 23.512 112.017 23.7178C111.929 23.9236 111.826 24.122 111.708 24.3131C111.649 24.4307 111.598 24.5263 111.554 24.5997C111.51 24.6732 111.466 24.7394 111.421 24.7982C111.377 24.8423 111.341 24.9011 111.311 24.9746C111.282 25.0481 111.245 25.1436 111.201 25.2612ZM122.799 21.6893C122.696 21.8216 122.593 21.9466 122.49 22.0642C122.387 22.1817 122.269 22.292 122.137 22.3949C122.049 22.5566 121.946 22.7036 121.828 22.8359C121.711 22.9681 121.593 23.0931 121.476 23.2107C121.417 23.3283 121.351 23.4238 121.277 23.4973C121.204 23.5561 121.123 23.6223 121.035 23.6958C120.991 23.7692 120.932 23.8427 120.858 23.9162C120.8 23.9897 120.741 24.0632 120.682 24.1367C120.638 24.2102 120.601 24.2911 120.572 24.3793C120.542 24.4675 120.55 24.563 120.594 24.6659C120.755 24.6953 120.917 24.6732 121.079 24.5997C121.24 24.5263 121.38 24.4601 121.498 24.4013C121.615 24.3278 121.733 24.269 121.85 24.2249C121.983 24.1661 122.1 24.1 122.203 24.0265L122.777 23.4532C122.879 23.365 122.968 23.2695 123.041 23.1666C123.115 23.0637 123.195 22.9534 123.284 22.8359C123.313 22.6889 123.372 22.5419 123.46 22.3949C123.548 22.2332 123.585 22.0789 123.57 21.9319C123.556 21.8437 123.526 21.7702 123.482 21.7114C123.453 21.6379 123.431 21.5644 123.416 21.4909C123.269 21.4909 123.151 21.5203 123.063 21.5791C122.99 21.6232 122.901 21.6599 122.799 21.6893ZM119.249 23.1004C119.278 23.0857 119.337 23.0269 119.425 22.9241C119.528 22.8065 119.638 22.6815 119.756 22.5492C119.873 22.4022 119.984 22.2773 120.087 22.1744C120.189 22.0568 120.263 21.9907 120.307 21.976C120.351 21.9025 120.388 21.8437 120.417 21.7996C120.461 21.7408 120.52 21.6893 120.594 21.6452C120.711 21.4247 120.866 21.2484 121.057 21.1161C121.248 20.9691 121.432 20.8 121.608 20.6089C121.887 20.4914 122.167 20.3444 122.446 20.168C122.74 19.9769 123.063 19.874 123.416 19.8593C123.578 19.9328 123.732 19.9548 123.879 19.9254C124.041 19.896 124.188 19.9328 124.32 20.0357C124.393 20.168 124.46 20.2562 124.518 20.3003C124.577 20.3297 124.621 20.3664 124.651 20.4105C124.709 20.6016 124.754 20.7265 124.783 20.7853C124.812 20.8294 124.834 20.8882 124.849 20.9617C124.864 21.1822 124.878 21.3439 124.893 21.4468C124.908 21.535 124.908 21.6232 124.893 21.7114C124.849 22.1083 124.776 22.4831 124.673 22.8359C124.643 22.9241 124.614 23.0196 124.585 23.1225C124.555 23.2107 124.518 23.2915 124.474 23.365C124.371 23.4973 124.291 23.6149 124.232 23.7178C124.188 23.806 124.144 23.8795 124.099 23.9383C123.923 24.1147 123.769 24.2617 123.636 24.3793C123.504 24.4528 123.372 24.5336 123.24 24.6218C123.107 24.71 122.96 24.7688 122.799 24.7982C122.725 24.8423 122.659 24.8864 122.6 24.9305C122.541 24.9599 122.468 24.9819 122.38 24.9966C122.233 25.0995 122.086 25.1804 121.939 25.2392C121.792 25.2833 121.637 25.3421 121.476 25.4155C121.387 25.4449 121.292 25.4964 121.189 25.5699C121.086 25.6434 120.983 25.7022 120.88 25.7463C120.792 25.7757 120.682 25.8051 120.55 25.8345C120.432 25.8492 120.336 25.8712 120.263 25.9006C120.336 26.0623 120.366 26.246 120.351 26.4518C120.336 26.6576 120.373 26.8414 120.461 27.003C120.653 27.0471 120.858 27.0839 121.079 27.1133C121.314 27.128 121.534 27.1206 121.74 27.0912C121.814 27.0765 121.895 27.0545 121.983 27.0251C122.071 26.981 122.159 26.9516 122.247 26.9369C122.409 26.9075 122.563 26.8708 122.71 26.8267C122.872 26.7826 123.012 26.7238 123.129 26.6503C123.556 26.5033 123.967 26.3048 124.364 26.055C124.761 25.8051 125.106 25.5331 125.4 25.2392C125.577 25.1216 125.768 24.9599 125.974 24.7541C126.194 24.5483 126.363 24.3572 126.481 24.1808C126.701 23.9456 126.892 23.7619 127.054 23.6296C127.23 23.4973 127.392 23.4385 127.539 23.4532C127.657 23.4532 127.767 23.5267 127.87 23.6737C127.987 23.806 127.98 23.953 127.848 24.1147C127.701 24.2029 127.546 24.3352 127.385 24.5116C127.223 24.6879 127.054 24.8129 126.878 24.8864C126.745 24.9746 126.576 25.1363 126.37 25.3714C126.179 25.6066 126.018 25.783 125.885 25.9006C125.827 25.9594 125.746 26.0329 125.643 26.1211C125.555 26.1946 125.481 26.2681 125.422 26.3416C125.217 26.518 124.996 26.6797 124.761 26.8267C124.673 26.7973 124.607 26.812 124.562 26.8708C124.518 26.9296 124.46 26.9883 124.386 27.0471C124.342 27.0765 124.291 27.1059 124.232 27.1353C124.188 27.1647 124.144 27.1941 124.099 27.2235C123.982 27.3264 123.85 27.4293 123.703 27.5322C123.57 27.6351 123.431 27.7233 123.284 27.7968C122.99 27.9732 122.696 28.1202 122.402 28.2378C122.108 28.3701 121.821 28.5318 121.542 28.7228C121.454 28.7375 121.373 28.7449 121.299 28.7449C121.226 28.7596 121.152 28.7743 121.079 28.789C120.991 28.8184 120.91 28.8331 120.836 28.8331C120.777 28.8331 120.689 28.8184 120.572 28.789C120.307 28.7155 120.087 28.6273 119.91 28.5244C119.734 28.4215 119.557 28.2745 119.381 28.0834C119.293 27.9952 119.197 27.9144 119.094 27.8409C118.992 27.7674 118.911 27.6866 118.852 27.5984C118.808 27.5249 118.756 27.4073 118.698 27.2456C118.639 27.0839 118.587 26.9149 118.543 26.7385C118.499 26.5474 118.462 26.3636 118.433 26.1872C118.404 26.0109 118.389 25.8786 118.389 25.7904C118.418 25.7316 118.455 25.6287 118.499 25.4817C118.528 25.3347 118.565 25.1804 118.609 25.0187C118.639 24.8423 118.668 24.6806 118.698 24.5336C118.712 24.3866 118.72 24.2837 118.72 24.2249C118.734 24.2102 118.771 24.1514 118.83 24.0485C118.889 23.9309 118.955 23.806 119.028 23.6737C119.087 23.5414 119.139 23.4238 119.183 23.3209C119.227 23.2033 119.249 23.1298 119.249 23.1004Z" fill="#00B4B4"/>
<path d="M42.1641 21.0007C42.1641 32.5982 32.7256 42 21.0823 42C9.43877 42 0 32.5984 0 21.0007C0 9.40234 9.4385 -1.90735e-06 21.0823 -1.90735e-06C32.7254 -1.90735e-06 42.1641 9.40234 42.1641 21.0007Z" fill="#00B4B4"/>
<path d="M21.4202 32.163C31.0199 32.163 38.8019 31.4468 38.8019 30.5633C38.8019 29.6799 31.0199 28.9637 21.4202 28.9637C11.8206 28.9637 4.03857 29.6799 4.03857 30.5633C4.03857 31.4468 11.8206 32.163 21.4202 32.163Z" fill="black"/>
<path d="M36.5016 18.6189H6.33936V19.3965H36.5016V18.6189Z" fill="#352200"/>
<path d="M6.67627 30.5634H36.165V19.3939H25.5906V12.6071L21.4208 9.92066H21.4205L17.2508 12.6071V19.3939H6.67627V30.5634Z" fill="#D3D5D6"/>
<path d="M23.355 25.4028H19.4868V30.5636H23.355V25.4028Z" fill="#352200"/>
<path d="M21.4207 18.5452C22.9884 18.5452 24.2593 17.2792 24.2593 15.7176C24.2593 14.1559 22.9884 12.89 21.4207 12.89C19.8529 12.89 18.582 14.1559 18.582 15.7176C18.582 17.2792 19.8529 18.5452 21.4207 18.5452Z" fill="#352200"/>
<path d="M21.4204 18.1169C22.7507 18.1169 23.8291 17.0427 23.8291 15.7176C23.8291 14.3925 22.7507 13.3183 21.4204 13.3183C20.0901 13.3183 19.0117 14.3925 19.0117 15.7176C19.0117 17.0427 20.0901 18.1169 21.4204 18.1169Z" fill="white"/>
<path d="M21.2089 13.918V15.6446H19.4751V16.1503H21.4628C21.6027 16.1501 21.7164 16.0371 21.7164 15.8975H21.7167V13.918H21.2089Z" fill="#352200"/>
<path d="M25.8669 13.1365V11.7278L21.4203 9.04668L16.9736 11.7278V13.1365L21.4203 10.4606L25.8669 13.1365Z" fill="#352200"/>
<path d="M10.225 20.5249H7.66943V23.883H10.225V20.5249Z" fill="#8FBDCF"/>
<path d="M13.7738 20.5249H11.2183V23.883H13.7738V20.5249Z" fill="#8FBDCF"/>
<path d="M17.3217 20.5249H14.7661V23.883H17.3217V20.5249Z" fill="#8FBDCF"/>
<path d="M10.225 25.6854H7.66943V29.0435H10.225V25.6854Z" fill="#8FBDCF"/>
<path d="M13.7738 25.6854H11.2183V29.0435H13.7738V25.6854Z" fill="#8FBDCF"/>
<path d="M17.3217 25.6854H14.7661V29.0435H17.3217V25.6854Z" fill="#8FBDCF"/>
<path d="M27.5419 20.5249H24.9863V23.883H27.5419V20.5249Z" fill="#8FBDCF"/>
<path d="M31.0907 20.5249H28.5352V23.883H31.0907V20.5249Z" fill="#8FBDCF"/>
<path d="M34.639 20.5249H32.0835V23.883H34.639V20.5249Z" fill="#8FBDCF"/>
<path d="M27.5419 25.6854H24.9863V29.0435H27.5419V25.6854Z" fill="#8FBDCF"/>
<path d="M31.0907 25.6854H28.5352V29.0435H31.0907V25.6854Z" fill="#8FBDCF"/>
<path d="M34.639 25.6854H32.0835V29.0435H34.639V25.6854Z" fill="#8FBDCF"/>
<path d="M12.8455 8.2823C12.6523 8.2823 12.4956 8.38054 12.4956 8.50171V31.2419C12.4956 31.363 12.6523 31.4613 12.8455 31.4613C13.0389 31.4613 13.1956 31.363 13.1956 31.2419V8.50171C13.1959 8.38054 13.0392 8.2823 12.8455 8.2823Z" fill="#58595B"/>
<path d="M12.4965 8.65528C11.7416 8.65528 11.4232 9.24793 10.9542 9.4015C10.4853 9.55506 9.69155 9.64304 9.11865 9.62091V12.2549C9.9563 12.2331 10.5956 12.1891 11.1246 11.8158C11.6536 11.4426 11.9733 11.3549 12.4968 11.3549V8.65528H12.4965Z" fill="#F4D7E3"/>
</g>
<defs>
<clipPath id="clip0_111_753">
<rect width="127" height="42" fill="white"/>
</clipPath>
</defs>
</svg>
